<svg xmlns="http://www.w3.org/2000/svg" xmlns:xlink="http://www.w3.org/1999/xlink" width="500" zoomAndPan="magnify" viewBox="0 0 375 374.999991" height="500" preserveAspectRatio="xMidYMid meet" version="1.0"><defs><clipPath id="4a7ef416ae"><path d="M 18.339844 196 L 124 196 L 124 290 L 18.339844 290 Z M 18.339844 196 " clip-rule="nonzero"/></clipPath><clipPath id="7ec66c82f6"><path d="M 251 196 L 356.589844 196 L 356.589844 290 L 251 290 Z M 251 196 " clip-rule="nonzero"/></clipPath><clipPath id="63560c0da4"><path d="M 152 56.402344 L 217 56.402344 L 217 139 L 152 139 Z M 152 56.402344 " clip-rule="nonzero"/></clipPath><clipPath id="b884461f31"><path d="M 187 56.402344 L 217 56.402344 L 217 86 L 187 86 Z M 187 56.402344 " clip-rule="nonzero"/></clipPath><clipPath id="220406c198"><path d="M 146 248 L 229 248 L 229 318.902344 L 146 318.902344 Z M 146 248 " clip-rule="nonzero"/></clipPath></defs><path fill="#ffcd45" d="M 309.804688 143.902344 L 280.675781 143.902344 L 280.675781 213.902344 L 338.929688 213.902344 L 338.929688 173.070312 L 309.804688 143.902344 " fill-opacity="1" fill-rule="nonzero"/><path fill="#ffcd45" d="M 59.304688 143.902344 L 30.175781 143.902344 L 30.175781 213.902344 L 88.433594 213.902344 L 88.433594 173.070312 L 59.304688 143.902344 " fill-opacity="1" fill-rule="nonzero"/><g clip-path="url(#4a7ef416ae)"><path fill="#000000" d="M 82.605469 196.402344 L 65.128906 213.902344 L 18.527344 213.902344 L 18.527344 289.734375 L 123.386719 289.734375 L 123.386719 196.402344 L 82.605469 196.402344 " fill-opacity="1" fill-rule="nonzero"/></g><g clip-path="url(#7ec66c82f6)"><path fill="#000000" d="M 315.628906 196.402344 L 298.152344 213.902344 L 251.546875 213.902344 L 251.546875 289.734375 L 356.40625 289.734375 L 356.40625 196.402344 L 315.628906 196.402344 " fill-opacity="1" fill-rule="nonzero"/></g><g clip-path="url(#63560c0da4)"><path fill="#ffcd45" d="M 187.464844 56.402344 L 152.511719 56.402344 L 152.511719 138.070312 L 216.59375 138.070312 L 216.59375 85.570312 L 187.464844 56.402344 " fill-opacity="1" fill-rule="nonzero"/></g><g clip-path="url(#b884461f31)"><path fill="#000000" d="M 216.59375 85.570312 L 187.464844 85.570312 L 187.464844 56.402344 Z M 216.59375 85.570312 " fill-opacity="1" fill-rule="nonzero"/></g><path fill="#000000" d="M 251.546875 97.234375 L 216.59375 97.234375 L 216.59375 178.902344 L 280.675781 178.902344 L 280.675781 126.402344 L 251.546875 97.234375 " fill-opacity="1" fill-rule="nonzero"/><path fill="#ffcd45" d="M 280.675781 126.402344 L 251.546875 126.402344 L 251.546875 97.234375 Z M 280.675781 126.402344 " fill-opacity="1" fill-rule="nonzero"/><path fill="#000000" d="M 123.386719 91.402344 L 88.433594 91.402344 L 88.433594 173.070312 L 152.511719 173.070312 L 152.511719 120.570312 L 123.386719 91.402344 " fill-opacity="1" fill-rule="nonzero"/><path fill="#ffcd45" d="M 152.511719 120.570312 L 123.386719 120.570312 L 123.386719 91.402344 Z M 152.511719 120.570312 " fill-opacity="1" fill-rule="nonzero"/><path fill="#000000" d="M 88.433594 173.070312 L 59.304688 173.070312 L 59.304688 143.902344 Z M 88.433594 173.070312 " fill-opacity="1" fill-rule="nonzero"/><path fill="#000000" d="M 338.929688 173.070312 L 309.804688 173.070312 L 309.804688 143.902344 Z M 338.929688 173.070312 " fill-opacity="1" fill-rule="nonzero"/><path fill="#ffcd45" d="M 53.480469 272.234375 L 41.828125 272.234375 L 41.828125 260.570312 L 53.480469 260.570312 L 53.480469 272.234375 " fill-opacity="1" fill-rule="nonzero"/><path fill="#ffcd45" d="M 76.78125 272.234375 L 65.128906 272.234375 L 65.128906 260.570312 L 76.78125 260.570312 L 76.78125 272.234375 " fill-opacity="1" fill-rule="nonzero"/><path fill="#ffcd45" d="M 100.082031 272.234375 L 88.433594 272.234375 L 88.433594 260.570312 L 100.082031 260.570312 L 100.082031 272.234375 " fill-opacity="1" fill-rule="nonzero"/><path fill="#ffcd45" d="M 286.5 272.234375 L 274.851562 272.234375 L 274.851562 260.570312 L 286.5 260.570312 L 286.5 272.234375 " fill-opacity="1" fill-rule="nonzero"/><path fill="#ffcd45" d="M 309.804688 272.234375 L 298.152344 272.234375 L 298.152344 260.570312 L 309.804688 260.570312 L 309.804688 272.234375 " fill-opacity="1" fill-rule="nonzero"/><path fill="#ffcd45" d="M 333.105469 272.234375 L 321.453125 272.234375 L 321.453125 260.570312 L 333.105469 260.570312 L 333.105469 272.234375 " fill-opacity="1" fill-rule="nonzero"/><path fill="#000000" d="M 193.292969 202.234375 L 146.6875 202.234375 L 146.6875 225.570312 L 193.292969 225.570312 L 193.292969 248.902344 L 228.246094 213.902344 L 193.292969 178.902344 L 193.292969 202.234375 " fill-opacity="1" fill-rule="nonzero"/><g clip-path="url(#220406c198)"><path fill="#000000" d="M 181.640625 295.570312 L 228.246094 295.570312 L 228.246094 272.234375 L 181.640625 272.234375 L 181.640625 248.902344 L 146.6875 283.902344 L 181.640625 318.902344 L 181.640625 295.570312 " fill-opacity="1" fill-rule="nonzero"/></g></svg>